<?xml version="1.0" encoding="UTF-8"?>
<svg width="1200pt" height="1200pt" version="1.1" viewBox="0 0 1200 1200" xmlns="http://www.w3.org/2000/svg">
 <path d="m418.65 277.04-16.387-33.227h-12.617l-16.395 33.227-36.672 5.3242-3.8945 11.992 26.535 25.871-6.2578 36.512 10.203 7.4141 32.793-17.242 32.793 17.242 10.203-7.4141-6.2695-36.512 26.535-25.871-3.8945-11.992zm1.5703 35.699-2.0195 6.2227 4.4766 26.109-23.449-12.332h-6.5508l-23.457 12.332 4.4766-26.109-2.0195-6.2227-18.98-18.504 26.23-3.8086 5.293-3.8438 11.73-23.766 11.719 23.766 5.293 3.8438 26.23 3.8086zm239.15-30.375-36.672-5.3242-16.395-33.227h-12.617l-16.387 33.227-36.672 5.3242-3.8945 11.992 26.535 25.871-6.2695 36.512 10.203 7.4141 32.793-17.242 32.793 17.242 10.203-7.4141-6.2578-36.512 26.535-25.871zm-35.102 30.375-2.0195 6.2227 4.4766 26.109-23.457-12.332h-6.5508l-23.449 12.332 4.4766-26.109-2.0195-6.2227-18.98-18.504 26.23-3.8086 5.293-3.8438 11.719-23.766 11.73 23.766 5.293 3.8438 26.23 3.8086zm130.09 43.996 10.203 7.4141 32.793-17.242 32.793 17.242 10.203-7.4141-6.2695-36.512 26.547-25.863-3.8945-11.996-36.684-5.3242-16.387-33.227h-12.617l-16.395 33.227-36.672 5.3242-3.8945 11.992 26.535 25.871zm-0.26172-62.5 26.23-3.8086 5.293-3.8438 11.73-23.766 11.719 23.766 5.293 3.8438 26.242 3.8086-18.988 18.496-2.0195 6.2305 4.4766 26.109-23.449-12.332h-6.5508l-23.457 12.332 4.4766-26.109-2.0195-6.2227zm47.273 112.27c3.8828 0 7.0312 3.1484 7.0312 7.0312v299.27c0 3.8828-3.1484 7.0312-7.0312 7.0312-3.8789 0-7.0312-3.1484-7.0312-7.0312v-299.27c0-3.8789 3.1484-7.0312 7.0312-7.0312zm-107.73 306.3v-299.27c0-3.8828 3.1484-7.0312 7.0312-7.0312 3.8828 0 7.0312 3.1484 7.0312 7.0312v299.27c0 3.8828-3.1484 7.0312-7.0312 7.0312-3.8828 0-7.0312-3.1484-7.0312-7.0312zm-86.637-299.27v299.27c0 3.8828-3.1484 7.0312-7.0312 7.0312-3.8828 0-7.0312-3.1484-7.0312-7.0312v-299.27c0-3.8828 3.1484-7.0312 7.0312-7.0312 3.8828 0 7.0312 3.1523 7.0312 7.0312zm-114.76 299.27v-299.27c0-3.8828 3.1484-7.0312 7.0312-7.0312s7.0312 3.1484 7.0312 7.0312v299.27c0 3.8828-3.1484 7.0312-7.0312 7.0312s-7.0312-3.1484-7.0312-7.0312zm-93.664 7.0312c-3.8828 0-7.0312-3.1484-7.0312-7.0312v-299.27c0-3.8828 3.1484-7.0312 7.0312-7.0312 3.8828 0 7.0312 3.1484 7.0312 7.0312v299.27c0 3.8828-3.1484 7.0312-7.0312 7.0312zm48.672 142.82c2.75 2.7461 2.75 7.1992 0 9.9453l-37.707 37.691c-1.3711 1.3711-3.1719 2.0547-4.9688 2.0547-1.8008 0-3.5977-0.68359-4.9688-2.0625-2.75-2.7461-2.75-7.1992 0-9.9453l37.707-37.691c2.7422-2.7383 7.1992-2.7461 9.9375 0.007812zm-50.637-60.906-49.262 20.41c-0.87891 0.35938-1.7891 0.53516-2.6875 0.53516-2.75 0-5.3789-1.6328-6.4961-4.3398-1.4844-3.582 0.21875-7.6992 3.8086-9.1875l49.262-20.41c3.5781-1.4688 7.6992 0.20703 9.1875 3.8086 1.4805 3.582-0.22656 7.6992-3.8125 9.1836zm124.53 116.91-20.426 49.246c-1.1289 2.7031-3.7461 4.3359-6.4961 4.3359-0.89844 0-1.8086-0.17188-2.6875-0.53906-3.5898-1.4844-5.293-5.5977-3.8086-9.1875l20.426-49.246c1.4961-3.5898 5.5977-5.2891 9.1875-3.7969 3.5859 1.4844 5.293 5.5977 3.8047 9.1875zm85.859 14.27v53.309c0 3.8828-3.1484 7.0312-7.0312 7.0312-3.8828 0-7.0312-3.1484-7.0312-7.0312v-53.309c0-3.8828 3.1484-7.0312 7.0312-7.0312 3.8828 0 7.0312 3.1484 7.0312 7.0312zm193.35-32.582c2.75 2.7422 2.75 7.1914 0 9.9414-1.3711 1.375-3.1719 2.0625-4.9688 2.0625-1.8008 0-3.5977-0.68359-4.9688-2.0625l-37.699-37.691c-2.75-2.7422-2.75-7.1914 0-9.9414 2.7422-2.75 7.1992-2.75 9.9414 0zm61.438-81.992c-1.1211 2.7031-3.7461 4.3359-6.4961 4.3359-0.89844 0-1.8086-0.17187-2.6875-0.53516l-49.25-20.41c-3.5898-1.4922-5.293-5.6016-3.8086-9.1914 1.4766-3.5898 5.6094-5.2695 9.1875-3.8047l49.25 20.41c3.5859 1.4961 5.2891 5.6055 3.8047 9.1953zm-149.56 144.16c1.4844 3.5898-0.21875 7.6992-3.8086 9.1914-0.87891 0.35937-1.7891 0.53516-2.6875 0.53516-2.75 0-5.3789-1.6328-6.4961-4.3359l-20.414-49.246c-1.4844-3.5898 0.21875-7.6992 3.8086-9.1914 3.5664-1.4688 7.6992 0.21875 9.1875 3.8047zm-112.23-962.52c-331.35 0-600 268.63-600 600s268.65 600 600 600c331.38 0 600-268.63 600-600s-268.62-600-600-600zm0 1185.9c-323.09 0-585.94-262.85-585.94-585.94s262.85-585.94 585.94-585.94 585.94 262.85 585.94 585.94-262.85 585.94-585.94 585.94z"/>
</svg>
