<?xml version="1.0" encoding="UTF-8"?>
<svg width="1200pt" height="1200pt" version="1.1" viewBox="0 0 1200 1200" xmlns="http://www.w3.org/2000/svg">
 <path d="m867.84 659.95c-4.5547 0.25781-109.16 6.9023-183.22 74.91 17.281-41.113 30.68-89.91 30.688-142.62 0-145.86-102.36-262.11-106.72-266.98-0.039063-0.046875-0.10156-0.058594-0.14453-0.10156-1.2852-1.3672-3.0742-2.2461-5.0977-2.2461-2.0234 0-3.8125 0.87891-5.0977 2.2461-0.039062 0.042968-0.10156 0.054687-0.14453 0.10156-4.3516 4.875-106.67 121.12-106.67 266.91 0 53.137 13.594 102.3 31.066 143.63-74.137-68.863-179.64-75.59-184.21-75.848-2.0195-0.070312-3.9453 0.62891-5.3672 2.0508-1.4219 1.4141-2.1641 3.3711-2.0508 5.3672 0.26172 4.6992 7.3438 115.94 81.59 190.17 64.887 64.875 157.92 78.492 183.57 81.078v111.82c0 3.8828 3.1484 7.0312 7.0312 7.0312 3.8789 0 7.0312-3.1484 7.0312-7.0312v-111.82c25.66-2.5859 118.68-16.207 183.55-81.078 74.258-74.234 81.352-185.48 81.613-190.17 0.11328-1.9961-0.62891-3.957-2.0508-5.3672-1.4062-1.4219-3.3633-2.1289-5.3633-2.0508zm-224.44 125.01c-1.1445 1.8359-2.2461 3.6758-3.3359 5.5195-11.34 18.84-21.938 33.832-29.688 44.031v-277.72l72.176-72.184c11.082 32.848 18.695 69.328 18.695 107.64-0.019532 76.262-30.156 145.34-57.848 192.72zm-104.24-338.55 57.148 57.117v49.176c-0.21094 0.97656-0.21094 1.9492 0 2.9258v57.547l-84.141-84.129c6.1328-29.918 15.898-57.824 26.992-82.637zm71.215-96.469c16.43 21.621 45.895 64.812 66.879 120.08l-66.879 66.887zm-14.066 133.7-50.812-50.781c18.199-37.43 38.277-66.414 50.812-82.914zm-87.184 62.234 87.188 87.172v201.47c-27.273-35.867-90.82-131.31-90.82-242.34-0.003906-15.793 1.3359-31.254 3.6328-46.301zm88.973 313.31c0.042969 0.046875 0.10547 0.0625 0.14844 0.10938 0.48047 0.51172 1.0742 0.88672 1.6875 1.2344 0.21484 0.12109 0.37891 0.30859 0.60156 0.40625 0.85938 0.375 1.8047 0.59766 2.8047 0.59766s1.9453-0.22266 2.8047-0.59766c0.22266-0.097656 0.39062-0.28516 0.60156-0.40625 0.61328-0.34766 1.2031-0.72266 1.6875-1.2344 0.042968-0.046875 0.10547-0.0625 0.14844-0.10938 0.31641-0.35156 1.1953-1.3555 2.4648-2.8477-3.3477 10.645-5.9492 20.68-7.9844 29.777-2.1055-9.3984-4.8047-19.789-8.3125-30.824 1.7773 2.1172 2.9648 3.4609 3.3477 3.8945zm-175.71-11.578c-59.148-59.148-73.566-145.98-76.695-172.82 26.828 3.1094 113.58 17.457 172.86 76.715 59.148 59.164 73.555 146.01 76.684 172.86-26.828-3.1094-113.57-17.477-172.85-76.746zm361.32 0c-59.18 59.168-145.98 73.602-172.83 76.738 2.2852-19.613 10.684-71.184 38.02-120.62 3.2461-5.2148 6.5625-10.754 9.8945-16.586 8.168-12.469 17.688-24.539 28.781-35.637 59.168-59.164 145.99-73.578 172.85-76.711-3.1445 26.859-17.57 113.68-76.719 172.82zm-187.68-643.84v-53.301c0-3.8828 3.1484-7.0312 7.0312-7.0312 3.8789 0 7.0312 3.1484 7.0312 7.0312v53.301c0 3.8828-3.1484 7.0312-7.0312 7.0312-3.8789 0-7.0312-3.1484-7.0312-7.0312zm159.76 70.266c-2.75-2.7461-2.75-7.1992 0-9.9453l37.707-37.688c2.7422-2.7422 7.1992-2.7461 9.9414 0.003907 2.75 2.7461 2.75 7.1992 0 9.9453l-37.707 37.688c-1.3711 1.3711-3.1719 2.0547-4.9688 2.0547-1.8008 0.003906-3.6016-0.68359-4.9727-2.0586zm-353.07-37.688c-2.75-2.7461-2.75-7.1992 0-9.9414 2.7422-2.75 7.1992-2.75 9.9414 0l37.676 37.688c2.75 2.7461 2.75 7.1992 0 9.9414-1.3711 1.375-3.1719 2.0625-4.9688 2.0625-1.8008 0-3.5977-0.68359-4.9688-2.0625zm88.102-62.133c-1.4844-3.5898 0.21875-7.6992 3.8086-9.1914 3.5664-1.4688 7.6992 0.21875 9.1875 3.8047l20.395 49.203c1.4844 3.5898-0.21875 7.6992-3.8086 9.1914-0.87891 0.35938-1.7891 0.53516-2.6875 0.53516-2.75 0-5.3789-1.6328-6.4961-4.3359zm315.61 160.71 49.25-20.395c3.5664-1.4492 7.6992 0.21484 9.1875 3.8086 1.4844 3.5898-0.21875 7.6992-3.8086 9.1875l-49.25 20.395c-0.87891 0.35938-1.7891 0.53516-2.6875 0.53516-2.75 0-5.3789-1.6328-6.4961-4.3438-1.4883-3.5898 0.21875-7.6992 3.8047-9.1875zm-124.54-116.89 20.434-49.25c1.4961-3.5938 5.5781-5.3047 9.1953-3.7969 3.5781 1.4844 5.2852 5.5977 3.7969 9.1875l-20.434 49.25c-1.1289 2.7031-3.7461 4.3359-6.4961 4.3359-0.89844 0-1.8086-0.17188-2.6992-0.53906-3.5742-1.4844-5.2812-5.5977-3.7969-9.1875zm204.52 208.72c0 3.8828-3.1484 7.0312-7.0312 7.0312h-53.289c-3.8828 0-7.0312-3.1484-7.0312-7.0312 0-3.8789 3.1484-7.0312 7.0312-7.0312h53.289c3.8789 0 7.0312 3.1484 7.0312 7.0312zm-286.4-426.74c-331.35 0-600 268.63-600 600s268.65 600 600 600c331.38 0 600-268.63 600-600s-268.62-600-600-600zm0 1185.9c-323.09 0-585.94-262.85-585.94-585.94s262.85-585.94 585.94-585.94 585.94 262.85 585.94 585.94-262.85 585.94-585.94 585.94z"/>
</svg>
