<?xml version="1.0" encoding="UTF-8"?>
<svg width="1200pt" height="1200pt" version="1.1" viewBox="0 0 1200 1200" xmlns="http://www.w3.org/2000/svg">
 <path d="m382.01 224.99c0-3.8828-3.1484-7.0312-7.0312-7.0312-3.8789 0-7.0312 3.1484-7.0312 7.0312 0 74.961-30.207 112.6-59.422 149-26.055 32.473-50.672 63.145-50.672 115.91 0 64.586 52.547 117.13 117.12 117.13s117.12-52.547 117.12-117.13c0-53.09-24.859-84.543-51.176-117.84-28.973-36.648-58.918-74.539-58.918-147.07zm-7.0312 367.98c-56.824 0-103.06-46.238-103.06-103.07 0-47.824 22.047-75.297 47.578-107.11 21.188-26.387 44.406-55.32 55.652-99.504 11.277 42.508 34.004 71.25 54.742 97.496 25.832 32.688 48.152 60.918 48.152 109.12 0 56.832-46.238 103.07-103.06 103.07zm417.25-292.97c0-3.8828-3.1484-7.0312-7.0312-7.0312-3.8789 0-7.0312 3.1484-7.0312 7.0312 0 127.79-51.344 191.77-101 253.64-43.297 53.949-84.195 104.9-84.195 191.99 0 105.99 86.238 192.22 192.23 192.22s192.23-86.227 192.23-192.22c0-87.652-41.32-139.92-85.066-195.27-49.234-62.281-100.14-126.69-100.14-250.36zm-7.0312 623.79c-98.238 0-178.17-79.922-178.17-178.16 0-82.141 39.395-131.22 81.098-183.19 38.453-47.914 80.953-100.88 97.246-186.15 16.426 82.172 58.164 134.98 95.957 182.79 42.188 53.371 82.031 103.79 82.031 186.55 0 98.234-79.926 178.16-178.16 178.16zm6.9688-85.504c0 3.8828-3.1484 7.0312-7.0312 7.0312-54.898 0-99.559-44.66-99.559-99.559 0-3.8828 3.1484-7.0312 7.0312-7.0312 3.8789 0 7.0312 3.1484 7.0312 7.0312 0 47.141 38.348 85.492 85.492 85.492 3.8828 0.003906 7.0352 3.1523 7.0352 7.0352zm-464.59 11.938c2.75 2.7461 2.75 7.1992 0 9.9414l-37.699 37.688c-1.3711 1.375-3.1719 2.0625-4.9688 2.0625-1.8008 0-3.5977-0.68359-4.9688-2.0625-2.75-2.7461-2.75-7.1992 0-9.9414l37.699-37.688c2.7383-2.75 7.1953-2.75 9.9375 0zm-50.641-60.906-49.25 20.402c-0.87891 0.35938-1.7891 0.53516-2.6875 0.53516-2.75 0-5.3789-1.6328-6.4961-4.3438-1.4844-3.582 0.21875-7.6992 3.8086-9.1875l49.25-20.402c3.5781-1.4688 7.6992 0.20703 9.1875 3.8086 1.4805 3.5859-0.22656 7.7031-3.8125 9.1875zm124.53 116.91-20.414 49.25c-1.1211 2.7031-3.7461 4.3359-6.4961 4.3359-0.89844 0-1.8086-0.17188-2.6875-0.53516-3.5898-1.4922-5.293-5.6016-3.8086-9.1914l20.414-49.25c1.4844-3.5938 5.6094-5.2773 9.1875-3.8047 3.5859 1.4922 5.2891 5.6055 3.8047 9.1953zm85.871 14.27v53.316c0 3.8828-3.1484 7.0312-7.0312 7.0312s-7.0312-3.1484-7.0312-7.0312v-53.316c0-3.8828 3.1484-7.0312 7.0312-7.0312 3.8789 0 7.0312 3.1523 7.0312 7.0312zm112.66-920.49c-331.35 0-600 268.63-600 600s268.65 600 600 600c331.38 0 600-268.63 600-600s-268.62-600-600-600zm0 1185.9c-323.09 0-585.94-262.85-585.94-585.94s262.85-585.94 585.94-585.94 585.94 262.85 585.94 585.94-262.85 585.94-585.94 585.94z"/>
</svg>
